Normalized EMG Linear Envelopes
nRows=32
nColumns=17

endheader
time	        VM	        VL	        RF	       GRA	        TA	   ADDLONG	   SEMIMEM	      BFLH	        GM	        GL	       TFL	   GLUTMAX	   GLUTMED	      PIRI	    OBTINT	        QF	
3.5375	  0.021404	  0.007655	  0.051189	  0.517036	  0.165081	  0.136825	  0.163670	  0.223820	  0.176318	  0.064362	  0.027630	  0.042201	  0.168443	  0.000000	  0.000000	  0.000000	
3.538	  0.021243	  0.007055	  0.048641	  0.523450	  0.165116	  0.137004	  0.166960	  0.227070	  0.176647	  0.063831	  0.026858	  0.041532	  0.167693	  0.000000	  0.000000	  0.000000	
3.5385	  0.021084	  0.006465	  0.046153	  0.529878	  0.165149	  0.137169	  0.170289	  0.230344	  0.176980	  0.063301	  0.026102	  0.040878	  0.166938	  0.000000	  0.000000	  0.000000	
3.539	  0.020927	  0.005887	  0.043726	  0.536317	  0.165181	  0.137320	  0.173657	  0.233643	  0.177318	  0.062772	  0.025361	  0.040238	  0.166176	  0.000000	  0.000000	  0.000000	
3.5395	  0.020773	  0.005320	  0.041358	  0.542766	  0.165213	  0.137458	  0.177064	  0.236964	  0.177661	  0.062245	  0.024636	  0.039612	  0.165408	  0.000000	  0.000000	  0.000000	
3.54	  0.020620	  0.004764	  0.039049	  0.549222	  0.165245	  0.137583	  0.180509	  0.240308	  0.178008	  0.061721	  0.023927	  0.039002	  0.164635	  0.000000	  0.000000	  0.000000	
3.5405	  0.020471	  0.004219	  0.036798	  0.555684	  0.165278	  0.137696	  0.183991	  0.243673	  0.178360	  0.061198	  0.023232	  0.038407	  0.163857	  0.000000	  0.000000	  0.000000	
3.541	  0.020324	  0.003685	  0.034604	  0.562149	  0.165312	  0.137798	  0.187509	  0.247058	  0.178716	  0.060677	  0.022553	  0.037828	  0.163074	  0.000000	  0.000000	  0.000000	
3.5415	  0.020179	  0.003162	  0.032467	  0.568616	  0.165347	  0.137888	  0.191063	  0.250463	  0.179076	  0.060159	  0.021888	  0.037265	  0.162286	  0.000000	  0.000000	  0.000000	
3.542	  0.020038	  0.002650	  0.030385	  0.575082	  0.165385	  0.137968	  0.194653	  0.253886	  0.179440	  0.059643	  0.021238	  0.036720	  0.161494	  0.000000	  0.000000	  0.000000	
3.5425	  0.019899	  0.002150	  0.028358	  0.581547	  0.165426	  0.138038	  0.198276	  0.257327	  0.179808	  0.059130	  0.020602	  0.036191	  0.160698	  0.000000	  0.000000	  0.000000	
3.543	  0.019764	  0.001660	  0.026386	  0.588008	  0.165469	  0.138099	  0.201933	  0.260784	  0.180181	  0.058620	  0.019981	  0.035681	  0.159898	  0.000000	  0.000000	  0.000000	
3.5435	  0.019632	  0.001182	  0.024468	  0.594464	  0.165515	  0.138150	  0.205622	  0.264256	  0.180559	  0.058113	  0.019373	  0.035188	  0.159095	  0.000000	  0.000000	  0.000000	
3.544	  0.019503	  0.000714	  0.022602	  0.600912	  0.165565	  0.138194	  0.209343	  0.267742	  0.180940	  0.057609	  0.018780	  0.034714	  0.158289	  0.000000	  0.000000	  0.000000	
3.5445	  0.019378	  0.000258	  0.020789	  0.607349	  0.165619	  0.138229	  0.213094	  0.271242	  0.181327	  0.057108	  0.018201	  0.034258	  0.157480	  0.000000	  0.000000	  0.000000	
3.545	  0.019256	  0.000000	  0.019027	  0.613775	  0.165676	  0.138257	  0.216875	  0.274754	  0.181718	  0.056611	  0.017635	  0.033822	  0.156668	  0.000000	  0.000000	  0.000000	
3.5455	  0.019138	  0.000000	  0.017316	  0.620187	  0.165738	  0.138278	  0.220684	  0.278278	  0.182113	  0.056117	  0.017082	  0.033405	  0.155854	  0.000000	  0.000000	  0.000000	
3.546	  0.019024	  0.000000	  0.015655	  0.626582	  0.165804	  0.138293	  0.224521	  0.281812	  0.182513	  0.055627	  0.016543	  0.033009	  0.155038	  0.000000	  0.000000	  0.000000	
3.5465	  0.018914	  0.000000	  0.014043	  0.632959	  0.165874	  0.138301	  0.228384	  0.285356	  0.182917	  0.055141	  0.016017	  0.032633	  0.154219	  0.000000	  0.000000	  0.000000	
3.547	  0.018808	  0.000000	  0.012479	  0.639316	  0.165949	  0.138304	  0.232272	  0.288909	  0.183325	  0.054659	  0.015504	  0.032278	  0.153399	  0.000000	  0.000000	  0.000000	
3.5475	  0.018706	  0.000000	  0.010963	  0.645650	  0.166029	  0.138302	  0.236184	  0.292470	  0.183738	  0.054182	  0.015004	  0.031944	  0.152577	  0.000000	  0.000000	  0.000000	
3.548	  0.018609	  0.000000	  0.009495	  0.651960	  0.166114	  0.138296	  0.240119	  0.296037	  0.184154	  0.053709	  0.014516	  0.031631	  0.151754	  0.000000	  0.000000	  0.000000	
3.5485	  0.018517	  0.000000	  0.008072	  0.658243	  0.166204	  0.138285	  0.244076	  0.299611	  0.184574	  0.053240	  0.014041	  0.031341	  0.150929	  0.000000	  0.000000	  0.000000	
3.549	  0.018429	  0.000000	  0.006695	  0.664497	  0.166299	  0.138271	  0.248053	  0.303189	  0.184998	  0.052776	  0.013579	  0.031073	  0.150104	  0.000000	  0.000000	  0.000000	
3.5495	  0.018346	  0.000000	  0.005362	  0.670719	  0.166400	  0.138254	  0.252049	  0.306771	  0.185425	  0.052318	  0.013128	  0.030828	  0.149278	  0.000000	  0.000000	  0.000000	
3.55	  0.018269	  0.000000	  0.004074	  0.676907	  0.166507	  0.138234	  0.256062	  0.310356	  0.185855	  0.051864	  0.012690	  0.030606	  0.148452	  0.000000	  0.000000	  0.000000	
3.5505	  0.018197	  0.000000	  0.002829	  0.683057	  0.166621	  0.138212	  0.260092	  0.313943	  0.186289	  0.051416	  0.012263	  0.030408	  0.147627	  0.000000	  0.000000	  0.000000	
3.551	  0.018130	  0.000000	  0.001627	  0.689167	  0.166740	  0.138187	  0.264137	  0.317532	  0.186725	  0.050974	  0.011849	  0.030233	  0.146802	  0.000000	  0.000000	  0.000000	
3.5515	  0.018069	  0.000000	  0.000466	  0.695233	  0.166866	  0.138162	  0.268196	  0.321123	  0.187163	  0.050537	  0.011445	  0.030083	  0.145978	  0.000000	  0.000000	  0.000000	
3.552	  0.018014	  0.000000	  0.000000	  0.701252	  0.166998	  0.138135	  0.272266	  0.324716	  0.187604	  0.050106	  0.011053	  0.029958	  0.145156	  0.000000	  0.000000	  0.000000	
3.5525	  0.017966	  0.000000	  0.000000	  0.707221	  0.167138	  0.138107	  0.276347	  0.328309	  0.188047	  0.049681	  0.010673	  0.029858	  0.144336	  0.000000	  0.000000	  0.000000	
3.553	  0.017923	  0.000000	  0.000000	  0.713136	  0.167284	  0.138078	  0.280438	  0.331904	  0.188492	  0.049263	  0.010303	  0.029784	  0.143517	  0.000000	  0.000000	  0.000000	
